<svg width="718" height="147" viewBox="0 0 718 147" fill="none" xmlns="http://www.w3.org/2000/svg">
<path d="M195.3 139.1V67.7L179.7 67.9C179 64.9 178.6 61.6 178.6 58.2C178.6 54.8 179 51.6 179.7 48.7L193.8 48.9C193.2 44.3 192.9 40.1 192.9 36.2C192.9 27.1 195.8 19.7 201.5 13.8C207.2 7.9 214.8 5 224.2 5C233.6 5 242.5 6.6 251.1 9.9C251.1 10.3 251.1 11.2 251.1 12.8C251.1 14.4 250.6 16.8 249.6 20.1C248.6 23.4 247.2 26 245.3 27.8C239.4 26.1 234.7 25.3 231.2 25.3C223 25.3 218.9 29.6 218.9 38.2C218.9 41.2 219.2 44.8 219.8 49.1L243.7 48.7C244.4 51.6 244.8 54.8 244.8 58.2C244.8 61.6 244.4 64.9 243.7 67.9L221.6 67.5V139.1C217.6 139.8 213.2 140.2 208.5 140.2C203.8 140.2 199.2 139.8 195.3 139.1Z" fill="#7878B7"/>
<path d="M294.6 68.9V139.1C291 139.8 286.6 140.2 281.4 140.2C276.2 140.2 271.6 139.8 267.6 139.1V78.2C267.6 71.3 264.8 67.9 259.1 67.9H256.6C255.9 64.9 255.5 61.7 255.5 58.5C255.5 55.2 255.9 52.1 256.6 49.1C262.6 48.5 267.8 48.2 272 48.2H275.6C281.5 48.2 286.2 50.1 289.6 53.8C292.9 57.4 294.6 62.5 294.6 68.9ZM262.2 22.9C262.2 19.4 262.9 16 264.2 12.7C267.6 10.9 272 10 277.5 10C283 10 287.3 10.9 290.3 12.7C291.6 16 292.3 19.3 292.3 22.9C292.3 26.4 291.6 29.8 290.3 33.1C287.3 34.9 282.9 35.8 277.1 35.8C271.3 35.8 267 34.9 264.2 33.1C262.8 29.8 262.2 26.4 262.2 22.9Z" fill="#7878B7"/>
<path d="M394 93.5V79.1C394 69.4 391.8 61.7 387.5 55.9C383.1 50.1 376.8 47.2 368.5 47.2C360.2 47.2 351.6 50.9 342.8 58.4C340.7 51.1 336 47.5 328.5 47.5H318.3L317 48.8V139.1C321 139.8 325.6 140.2 330.7 140.2C335.8 140.2 340.3 139.8 344 139.1V78.3999C348.7 73.6999 353.7 71.3 358.9 71.3C361.9 71.3 364 72.2999 365.2 74.3999C366.4 76.4999 367 79.7 367 84.2V123.7C367 124 367.1 124.2 367.2 124.5V139.1C370.9 139.8 375.4 140.2 380.5 140.2C385.6 140.2 390.2 139.8 394.2 139.1V93.5C394.1 93.5 394 93.5 394 93.5Z" fill="#7878B7"/>
<path d="M111 140.2H34.5C18.8 140.2 6 127.5 6 111.7V35.2C6 19.5 18.7 6.69995 34.5 6.69995H111C126.7 6.69995 139.5 19.4 139.5 35.2V111.7C139.5 127.4 126.7 140.2 111 140.2Z" stroke="#7878B7" stroke-width="11.9609" stroke-miterlimit="10"/>
<path d="M101.3 84.6C102.3 85.2 102.5 86 101.9 87L91.1001 104.1C89.8001 106.2 88.2001 108 86.4001 109.7C84.6001 111.3 82.5001 112.7 80.3001 113.9C78.1001 115 75.8001 115.9 73.3001 116.5C70.8001 117.1 68.3001 117.4 65.8001 117.4C63.3001 117.4 60.8001 117 58.3001 116.4C55.8001 115.7 53.4001 114.7 51.1001 113.2C49.0001 111.9 47.1001 110.2 45.4001 108.4C43.7001 106.5 42.3001 104.5 41.1001 102.3C40.0001 100.1 39.1001 97.8 38.5001 95.3C37.9001 92.8 37.6001 90.4 37.7001 87.9C37.8001 85.4 38.1001 82.9 38.8001 80.5C39.5001 78 40.5001 75.7 42.0001 73.4L52.8001 56.3C53.4001 55.3 54.2001 55.2 55.2001 55.8L101.3 84.6ZM64.8001 102.5C66.8001 102.8 68.7001 102.8 70.6001 102.4C72.5001 102 74.3001 101.2 75.9001 100.1C77.6001 99 79.0001 97.5 80.1001 95.6L83.0001 91L57.3001 74.8L54.4001 79.4C53.2001 81.2 52.5001 83.2 52.2001 85.2C51.9001 87.2 51.9001 89.1 52.4001 91C52.8001 92.9 53.6001 94.6 54.8001 96.3C55.9001 97.9 57.4001 99.3 59.2001 100.4C61.0001 101.5 62.9001 102.2 64.8001 102.5Z" fill="#8CCFEF"/>
<path d="M90.7002 34.3C91.9002 35.1 92.3002 36.6 91.6002 37.8L80.6002 55.3C80.0002 56.2 79.2002 56.4 78.2002 55.7L69.5002 50.2C68.7002 49.7 68.4002 48.6 68.9002 47.9L79.8002 30.5C80.6002 29.3 82.3002 28.9 83.6002 29.8C84.9002 30.7 87.2002 32.1 90.7002 34.3Z" fill="#8CCFEF"/>
<path d="M107.5 53.9C108.7 54.7 108.7 55.6 108.2 56.4L100.6 68.5C100.2 69.1 99.4999 69.2 98.4999 68.5L89.7999 63C88.9999 62.5 88.5999 61.6 88.8999 61.1L96.4999 49.1C96.9999 48.2 97.9999 47.9 99.2999 48.8C100.7 49.7 104 51.7 107.5 53.9Z" fill="#8CCFEF"/>
<path d="M505 29C501 22.4 495.6 17.5 488.7 14.3C481.8 11.1 473.9 9.5 465.1 9.5C458 9.5 451 9.6 444.1 9.7C437.1 9.9 429.7 10 421.7 10.2L420.4 11.5V138.5C422.8 138.9 425.5 139.2 428.4 139.4C431.3 139.6 433.6 139.6 435.4 139.6C437.4 139.6 439.8 139.5 442.6 139.4C445.4 139.2 448 138.9 450.5 138.5V98.4H465.2C474.1 98.4 481.9 96.7 488.8 93.4C495.7 90.1 501.1 85.1 505.1 78.6C509.1 72 511 63.8 511 54C510.9 43.9 509 35.5 505 29ZM479 63.5C478.1 66.8 476.4 69.7 473.8 72.1C471.2 74.5 467.5 75.7 462.5 75.7C461.2 75.7 459 75.7 455.6 75.8C453.9 75.8 452.1 75.9 450.3 76V32.3C452.8 32.4 455 32.4 456.9 32.4C458.8 32.4 460.6 32.4 462.5 32.4C467.5 32.4 471.3 33.6 473.8 36C476.4 38.4 478.1 41.2 479 44.6C479.9 47.9 480.3 51.1 480.3 54C480.3 57 479.9 60.2 479 63.5Z" fill="#8CCFEF"/>
<path d="M574.1 9.8C570.7 9.6 567.9 9.5 565.5 9.5C563 9.5 560.1 9.6 556.7 9.8C553.4 10 550.5 10.3 548.1 10.6L506.7 136.2L507.8 137.8C509.5 138.4 511.7 138.9 514.6 139.3C517.4 139.7 520 139.9 522.2 139.9C524.5 139.9 526.7 139.8 528.9 139.7C531.1 139.5 533.1 139.2 534.9 138.8L542.9 111.7C543.2 111.7 543.5 111.7 543.8 111.7C545 111.7 546.1 111.8 547.3 111.8C548.5 111.8 549.5 111.8 550.3 111.8H577C577.9 111.8 578.9 111.8 580 111.8C581.2 111.8 582.3 111.7 583.5 111.7C583.8 111.7 584.2 111.7 584.5 111.7L588 124C589.8 130.4 592.1 134.8 594.7 137C597.4 139.2 601.1 140.3 605.8 140.3C608.6 140.3 611.7 140 614.9 139.4C618.2 138.8 620.8 137.9 622.9 136.7L582.8 10.7C580.3 10.3 577.4 10 574.1 9.8ZM577.5 88.1C576.3 88.1 575.2 88 574.1 88C573 88 572 88 571.1 88H557.4C556.5 88 555.5 88 554.4 88C553.3 88 552.2 88.1 551 88.1C550.6 88.1 550.2 88.1 549.8 88.1L554.1 73.5C555.1 70.1 556.2 66.3 557.3 62.1C558.5 57.9 559.6 53.7 560.6 49.4C561.7 45.2 562.5 41.3 563.1 37.8H564.2C565.8 44 567.5 50.6 569.4 57.7C571.3 64.8 573 71 574.5 76.2L577.8 88C577.8 88.2 577.6 88.2 577.5 88.1Z" fill="#8CCFEF"/>
<path d="M717.2 13.2999L716 11.5999C714 10.8999 711.7 10.3999 709 9.9999C706.3 9.5999 703.8 9.3999 701.3 9.3999C699.4 9.3999 697.4 9.4999 695.3 9.5999C693.2 9.7999 691.2 10.0999 689.1 10.4999L676.5 42.1999C675.4 45.0999 674.3 48.0999 673.1 51.0999C672 54.1999 670.9 57.2999 669.9 60.4999C668.9 63.6999 668 66.8999 667.3 70.0999H666.2C664.9 64.9999 663.5 60.2999 662.1 55.7999C660.7 51.2999 659.2 47.0999 657.7 43.1999L648.8 20.7999C647.1 16.5999 645 13.5999 642.8 11.6999C640.5 9.7999 637.3 8.8999 633 8.8999C629.8 8.8999 626.6 9.3999 623.4 10.3999C620.2 11.3999 617.3 12.5999 614.7 13.9999L650.9 98.1999V138.5C653.3 138.9 656 139.2 659 139.4C661.9 139.6 664.3 139.6 666.1 139.6C668.1 139.6 670.5 139.5 673.2 139.4C675.9 139.2 678.5 138.9 681 138.5V99.1999L717.2 13.2999Z" fill="#8CCFEF"/>
</svg>
